<svg xmlns="http://www.w3.org/2000/svg" viewBox="0 0 1200 400" width="1200" height="400">
  <defs>
    <linearGradient id="labBg" x1="0%" y1="0%" x2="100%" y2="100%">
      <stop offset="0%" style="stop-color:#f0f9ff;stop-opacity:1" />
      <stop offset="100%" style="stop-color:#e0f2fe;stop-opacity:1" />
    </linearGradient>
  </defs>
  
  <!-- Background -->
  <rect width="1200" height="400" fill="url(#labBg)"/>
  
  <!-- Title -->
  <text x="600" y="40" font-family="Arial, sans-serif" font-size="28" fill="#1e293b" font-weight="bold" text-anchor="middle">7 Specialized Virtual Laboratories</text>
  <text x="600" y="65" font-family="Arial, sans-serif" font-size="16" fill="#64748b" text-anchor="middle">80+ Interactive Experiments Across Engineering Disciplines</text>
  
  <!-- Lab 1: AI/ML -->
  <g transform="translate(80, 100)">
    <rect x="0" y="0" width="140" height="240" rx="12" fill="#ffffff" stroke="#60a5fa" stroke-width="3" opacity="0.95"/>
    <circle cx="70" cy="50" r="30" fill="#dbeafe"/>
    <!-- Brain icon -->
    <circle cx="70" cy="50" r="22" fill="none" stroke="#3b82f6" stroke-width="2.5"/>
    <path d="M 58 45 Q 63 42 70 43 Q 77 42 82 45" fill="none" stroke="#3b82f6" stroke-width="2"/>
    <path d="M 58 52 Q 63 50 70 51 Q 77 50 82 52" fill="none" stroke="#3b82f6" stroke-width="2"/>
    <circle cx="64" cy="44" r="1.5" fill="#3b82f6"/>
    <circle cx="76" cy="44" r="1.5" fill="#3b82f6"/>
    
    <text x="70" y="100" font-family="Arial, sans-serif" font-size="14" fill="#1e293b" font-weight="bold" text-anchor="middle">AI & ML</text>
    <text x="70" y="120" font-family="Arial, sans-serif" font-size="11" fill="#64748b" text-anchor="middle">12 Experiments</text>
    
    <!-- Topics -->
    <rect x="15" y="135" width="110" height="20" rx="4" fill="#eff6ff"/>
    <text x="70" y="149" font-family="Arial, sans-serif" font-size="10" fill="#3b82f6" text-anchor="middle">Regression</text>
    <rect x="15" y="160" width="110" height="20" rx="4" fill="#eff6ff"/>
    <text x="70" y="174" font-family="Arial, sans-serif" font-size="10" fill="#3b82f6" text-anchor="middle">Classification</text>
    <rect x="15" y="185" width="110" height="20" rx="4" fill="#eff6ff"/>
    <text x="70" y="199" font-family="Arial, sans-serif" font-size="10" fill="#3b82f6" text-anchor="middle">Deep Learning</text>
    <rect x="15" y="210" width="110" height="20" rx="4" fill="#eff6ff"/>
    <text x="70" y="224" font-family="Arial, sans-serif" font-size="10" fill="#3b82f6" text-anchor="middle">Model Evaluation</text>
  </g>
  
  <!-- Lab 2: DAA -->
  <g transform="translate(250, 100)">
    <rect x="0" y="0" width="140" height="240" rx="12" fill="#ffffff" stroke="#a78bfa" stroke-width="3" opacity="0.95"/>
    <circle cx="70" cy="50" r="30" fill="#f3e8ff"/>
    <!-- Algorithm icon -->
    <text x="70" y="62" font-family="monospace" font-size="28" fill="#8b5cf6" font-weight="bold" text-anchor="middle">{ }</text>
    
    <text x="70" y="100" font-family="Arial, sans-serif" font-size="14" fill="#1e293b" font-weight="bold" text-anchor="middle">Algorithms</text>
    <text x="70" y="120" font-family="Arial, sans-serif" font-size="11" fill="#64748b" text-anchor="middle">10 Experiments</text>
    
    <rect x="15" y="135" width="110" height="20" rx="4" fill="#faf5ff"/>
    <text x="70" y="149" font-family="Arial, sans-serif" font-size="10" fill="#8b5cf6" text-anchor="middle">Sorting O(n log n)</text>
    <rect x="15" y="160" width="110" height="20" rx="4" fill="#faf5ff"/>
    <text x="70" y="174" font-family="Arial, sans-serif" font-size="10" fill="#8b5cf6" text-anchor="middle">Graph Traversal</text>
    <rect x="15" y="185" width="110" height="20" rx="4" fill="#faf5ff"/>
    <text x="70" y="199" font-family="Arial, sans-serif" font-size="10" fill="#8b5cf6" text-anchor="middle">Greedy Algorithms</text>
    <rect x="15" y="210" width="110" height="20" rx="4" fill="#faf5ff"/>
    <text x="70" y="224" font-family="Arial, sans-serif" font-size="10" fill="#8b5cf6" text-anchor="middle">Backtracking</text>
  </g>
  
  <!-- Lab 3: Data Structures -->
  <g transform="translate(420, 100)">
    <rect x="0" y="0" width="140" height="240" rx="12" fill="#ffffff" stroke="#4ade80" stroke-width="3" opacity="0.95"/>
    <circle cx="70" cy="50" r="30" fill="#dcfce7"/>
    <!-- Tree structure icon -->
    <circle cx="70" cy="42" r="5" fill="#22c55e"/>
    <line x1="70" y1="47" x2="60" y2="57" stroke="#22c55e" stroke-width="2"/>
    <line x1="70" y1="47" x2="80" y2="57" stroke="#22c55e" stroke-width="2"/>
    <circle cx="60" cy="57" r="4" fill="#22c55e"/>
    <circle cx="80" cy="57" r="4" fill="#22c55e"/>
    
    <text x="70" y="100" font-family="Arial, sans-serif" font-size="14" fill="#1e293b" font-weight="bold" text-anchor="middle">Data Structures</text>
    <text x="70" y="120" font-family="Arial, sans-serif" font-size="11" fill="#64748b" text-anchor="middle">10+ Experiments</text>
    
    <rect x="15" y="135" width="110" height="20" rx="4" fill="#f0fdf4"/>
    <text x="70" y="149" font-family="Arial, sans-serif" font-size="10" fill="#22c55e" text-anchor="middle">Stack & Queue</text>
    <rect x="15" y="160" width="110" height="20" rx="4" fill="#f0fdf4"/>
    <text x="70" y="174" font-family="Arial, sans-serif" font-size="10" fill="#22c55e" text-anchor="middle">Trees & Graphs</text>
    <rect x="15" y="185" width="110" height="20" rx="4" fill="#f0fdf4"/>
    <text x="70" y="199" font-family="Arial, sans-serif" font-size="10" fill="#22c55e" text-anchor="middle">Sorting Algos</text>
    <rect x="15" y="210" width="110" height="20" rx="4" fill="#f0fdf4"/>
    <text x="70" y="224" font-family="Arial, sans-serif" font-size="10" fill="#22c55e" text-anchor="middle">Searching</text>
  </g>
  
  <!-- Lab 4: Blockchain -->
  <g transform="translate(590, 100)">
    <rect x="0" y="0" width="140" height="240" rx="12" fill="#ffffff" stroke="#fbbf24" stroke-width="3" opacity="0.95"/>
    <circle cx="70" cy="50" r="30" fill="#fef3c7"/>
    <!-- Chain icon -->
    <circle cx="60" cy="45" r="8" fill="none" stroke="#f59e0b" stroke-width="2.5"/>
    <circle cx="80" cy="45" r="8" fill="none" stroke="#f59e0b" stroke-width="2.5"/>
    <circle cx="60" cy="55" r="8" fill="none" stroke="#f59e0b" stroke-width="2.5"/>
    <circle cx="80" cy="55" r="8" fill="none" stroke="#f59e0b" stroke-width="2.5"/>
    
    <text x="70" y="100" font-family="Arial, sans-serif" font-size="14" fill="#1e293b" font-weight="bold" text-anchor="middle">Blockchain</text>
    <text x="70" y="120" font-family="Arial, sans-serif" font-size="11" fill="#64748b" text-anchor="middle">20 Experiments</text>
    
    <rect x="15" y="135" width="110" height="20" rx="4" fill="#fffbeb"/>
    <text x="70" y="149" font-family="Arial, sans-serif" font-size="10" fill="#f59e0b" text-anchor="middle">Hashing & Mining</text>
    <rect x="15" y="160" width="110" height="20" rx="4" fill="#fffbeb"/>
    <text x="70" y="174" font-family="Arial, sans-serif" font-size="10" fill="#f59e0b" text-anchor="middle">Smart Contracts</text>
    <rect x="15" y="185" width="110" height="20" rx="4" fill="#fffbeb"/>
    <text x="70" y="199" font-family="Arial, sans-serif" font-size="10" fill="#f59e0b" text-anchor="middle">Consensus</text>
    <rect x="15" y="210" width="110" height="20" rx="4" fill="#fffbeb"/>
    <text x="70" y="224" font-family="Arial, sans-serif" font-size="10" fill="#f59e0b" text-anchor="middle">DeFi & NFTs</text>
  </g>
  
  <!-- Lab 5: Cryptography -->
  <g transform="translate(760, 100)">
    <rect x="0" y="0" width="140" height="240" rx="12" fill="#ffffff" stroke="#f472b6" stroke-width="3" opacity="0.95"/>
    <circle cx="70" cy="50" r="30" fill="#fce7f3"/>
    <!-- Lock icon -->
    <rect x="60" y="50" width="20" height="15" rx="2" fill="#ec4899"/>
    <path d="M 62 50 L 62 43 Q 62 38 70 38 Q 78 38 78 43 L 78 50" fill="none" stroke="#ec4899" stroke-width="2.5"/>
    <circle cx="70" cy="57" r="2" fill="#ffffff"/>
    
    <text x="70" y="100" font-family="Arial, sans-serif" font-size="14" fill="#1e293b" font-weight="bold" text-anchor="middle">Cryptography</text>
    <text x="70" y="120" font-family="Arial, sans-serif" font-size="11" fill="#64748b" text-anchor="middle">10 Experiments</text>
    
    <rect x="15" y="135" width="110" height="20" rx="4" fill="#fdf2f8"/>
    <text x="70" y="149" font-family="Arial, sans-serif" font-size="10" fill="#ec4899" text-anchor="middle">Classical Ciphers</text>
    <rect x="15" y="160" width="110" height="20" rx="4" fill="#fdf2f8"/>
    <text x="70" y="174" font-family="Arial, sans-serif" font-size="10" fill="#ec4899" text-anchor="middle">Modern Encryption</text>
    <rect x="15" y="185" width="110" height="20" rx="4" fill="#fdf2f8"/>
    <text x="70" y="199" font-family="Arial, sans-serif" font-size="10" fill="#ec4899" text-anchor="middle">Hash Functions</text>
    <rect x="15" y="210" width="110" height="20" rx="4" fill="#fdf2f8"/>
    <text x="70" y="224" font-family="Arial, sans-serif" font-size="10" fill="#ec4899" text-anchor="middle">Key Exchange</text>
  </g>
  
  <!-- Lab 6: Electrical -->
  <g transform="translate(930, 100)">
    <rect x="0" y="0" width="140" height="240" rx="12" fill="#ffffff" stroke="#fb923c" stroke-width="3" opacity="0.95"/>
    <circle cx="70" cy="50" r="30" fill="#ffedd5"/>
    <!-- Circuit icon -->
    <circle cx="70" cy="50" r="10" fill="none" stroke="#f97316" stroke-width="2.5"/>
    <line x1="80" y1="50" x2="90" y2="50" stroke="#f97316" stroke-width="2.5"/>
    <line x1="50" y1="50" x2="60" y2="50" stroke="#f97316" stroke-width="2.5"/>
    <line x1="67" y1="42" x2="67" y2="58" stroke="#f97316" stroke-width="2"/>
    <line x1="73" y1="42" x2="73" y2="58" stroke="#f97316" stroke-width="2"/>
    
    <text x="70" y="100" font-family="Arial, sans-serif" font-size="14" fill="#1e293b" font-weight="bold" text-anchor="middle">Electrical Eng.</text>
    <text x="70" y="120" font-family="Arial, sans-serif" font-size="11" fill="#64748b" text-anchor="middle">10 Experiments</text>
    
    <rect x="15" y="135" width="110" height="20" rx="4" fill="#fff7ed"/>
    <text x="70" y="149" font-family="Arial, sans-serif" font-size="10" fill="#f97316" text-anchor="middle">Circuit Analysis</text>
    <rect x="15" y="160" width="110" height="20" rx="4" fill="#fff7ed"/>
    <text x="70" y="174" font-family="Arial, sans-serif" font-size="10" fill="#f97316" text-anchor="middle">AC/DC Circuits</text>
    <rect x="15" y="185" width="110" height="20" rx="4" fill="#fff7ed"/>
    <text x="70" y="199" font-family="Arial, sans-serif" font-size="10" fill="#f97316" text-anchor="middle">Machines</text>
    <rect x="15" y="210" width="110" height="20" rx="4" fill="#fff7ed"/>
    <text x="70" y="224" font-family="Arial, sans-serif" font-size="10" fill="#f97316" text-anchor="middle">Measurements</text>
  </g>
  
  <!-- Lab 7: Data Analytics (centered below) -->
  <g transform="translate(530, 100)">
    <rect x="0" y="0" width="140" height="0" rx="12" fill="none"/>
  </g>
  
  <!-- Stats decoration -->
  <g transform="translate(50, 360)">
    <text x="0" y="0" font-family="Arial, sans-serif" font-size="18" fill="#1e293b" font-weight="bold">📊 80+ Experiments</text>
    <text x="250" y="0" font-family="Arial, sans-serif" font-size="18" fill="#1e293b" font-weight="bold">🎓 7 Domains</text>
    <text x="500" y="0" font-family="Arial, sans-serif" font-size="18" fill="#1e293b" font-weight="bold">⭐ Interactive Learning</text>
    <text x="800" y="0" font-family="Arial, sans-serif" font-size="18" fill="#1e293b" font-weight="bold">🚀 No Installation</text>
  </g>
</svg>
